<?xml version="1.0" standalone="no"?>
<!DOCTYPE svg PUBLIC "-//W3C//DTDSVG20010904//EN"  "http://www.w3.org/TR/2001/REC-SVG-20010904/DTD/svg10.dtd">
<svg version="1.0" xmlns="http://www.w3.org/2000/svg" width="360.000000pt" height="360.000000pt" viewBox="0 0 360.000000 360.000000" preserveAspectRatio="xMidYMid meet">

    <g transform="translate(0.000000,360.000000) scale(0.100000,-0.100000)" fill="#FFFFFF" stroke="#FFFFFF">
        <path d="M1013 2869 c-63 -24 -131 -89 -164 -156 -20 -40 -24 -63 -24 -140 l0
                                                -93 80 -80 80 -80 118 0 118 0 58 58 c77 75 105 146 99 248 -13 197 -186 312
                                                -365 243z m122 -29 c3 -5 -1 -10 -9 -10 -9 0 -16 5 -16 10 0 6 4 10 9 10 6 0
                                                13 -4 16 -10z m-54 -23 c-13 -13 -26 -3 -16 12 3 6 11 8 17 5 6 -4 6 -10 -1
                                                -17z m-50 -20 c-13 -13 -26 -3 -16 12 3 6 11 8 17 5 6 -4 6 -10 -1 -17z m174
                                                13 c3 -5 -1 -10 -9 -10 -9 0 -16 5 -16 10 0 6 4 10 9 10 6 0 13 -4 16 -10z
                                                m-54 -13 c-1 -12 -15 -9 -19 4 -3 6 1 10 8 8 6 -3 11 -8 11 -12z m-171 -17 c0
                                                -5 -4 -10 -10 -10 -5 0 -10 5 -10 10 0 6 5 10 10 10 6 0 10 -4 10 -10z m125 0
                                                c3 -5 -1 -10 -9 -10 -9 0 -16 5 -16 10 0 6 4 10 9 10 6 0 13 -4 16 -10z m165
                                                0 c0 -5 -4 -10 -10 -10 -5 0 -10 5 -10 10 0 6 5 10 10 10 6 0 10 -4 10 -10z
                                                m-42 -11 c-2 -6 -8 -10 -13 -10 -5 0 -11 4 -13 10 -2 6 4 11 13 11 9 0 15 -5
                                                13 -11z m-293 -20 c-10 -15 -25 -10 -19 6 4 8 10 12 15 9 5 -3 7 -10 4 -15z
                                                m115 13 c0 -13 -12 -22 -22 -16 -10 6 -1 24 13 24 5 0 9 -4 9 -8z m130 -13 c0
                                                -5 -7 -9 -15 -9 -15 0 -20 12 -9 23 8 8 24 -1 24 -14z m-180 -14 c0 -8 -7 -15
                                                -15 -15 -16 0 -20 12 -8 23 11 12 23 8 23 -8z m120 -15 c-18 -11 -24 -6 -16
                                                16 5 14 9 15 19 5 9 -9 9 -14 -3 -21z m177 4 c-9 -9 -28 6 -21 18 4 6 10 6 17
                                                -1 6 -6 8 -13 4 -17z m-47 -9 c0 -8 -4 -15 -9 -15 -5 0 -11 7 -15 15 -3 9 0
                                                15 9 15 8 0 15 -7 15 -15z m-300 -3 c0 -13 -12 -22 -22 -16 -10 6 -1 24 13 24
                                                5 0 9 -4 9 -8z m118 -3 c-2 -6 -8 -10 -13 -10 -5 0 -11 4 -13 10 -2 6 4 11 13
                                                11 9 0 15 -5 13 -11z m133 -14 c-1 -15 -24 -12 -29 3 -3 9 2 13 12 10 10 -1
                                                17 -7 17 -13z m-305 -22 c-10 -10 -19 5 -10 18 6 11 8 11 12 0 2 -7 1 -15 -2
                                                -18z m124 6 c0 -5 -7 -9 -15 -9 -15 0 -20 12 -9 23 8 8 24 -1 24 -14z m297 -5
                                                c-9 -9 -28 6 -21 18 4 6 10 6 17 -1 6 -6 8 -13 4 -17z m-167 1 c0 -8 -7 -15
                                                -15 -15 -8 0 -15 7 -15 15 0 8 7 15 15 15 8 0 15 -7 15 -15z m-190 -29 c-14
                                                -14 -24 0 -16 21 6 15 8 15 16 3 6 -9 5 -19 0 -24z m310 19 c0 -8 -4 -15 -10
                                                -15 -5 0 -10 7 -10 15 0 8 5 15 10 15 6 0 10 -7 10 -15z m-177 -9 c3 -8 0 -17
                                                -8 -20 -14 -5 -28 17 -18 28 10 10 21 7 26 -8z m135 -14 c2 -7 -3 -12 -12 -12
                                                -9 0 -16 7 -16 16 0 17 22 14 28 -4z m-314 -13 c-3 -5 -10 -7 -15 -3 -5 3 -7
                                                10 -3 15 3 5 10 7 15 3 5 -3 7 -10 3 -15z m118 -11 c-15 -15 -26 -4 -18 18 5
                                                13 9 15 18 6 9 -9 9 -15 0 -24z m297 3 c-15 -5 -22 6 -14 19 6 9 10 9 16 -1 5
                                                -8 4 -15 -2 -18z m-159 5 c0 -8 -4 -17 -9 -21 -12 -7 -24 12 -16 25 9 15 25
                                                12 25 -4z m-304 -23 c-10 -10 -19 5 -10 18 6 11 8 11 12 0 2 -7 1 -15 -2 -18z
                                                m415 -6 c-8 -8 -11 -7 -11 4 0 20 13 34 18 19 3 -7 -1 -17 -7 -23z m-296 14
                                                c7 -12 -12 -24 -25 -16 -11 7 -4 25 10 25 5 0 11 -4 15 -9z m130 -10 c7 -12
                                                -12 -24 -25 -16 -11 7 -4 25 10 25 5 0 11 -4 15 -9z m-189 -28 c-10 -10 -19 5
                                                -10 18 6 11 8 11 12 0 2 -7 1 -15 -2 -18z m316 12 c0 -5 -5 -11 -11 -13 -6 -2
                                                -11 4 -11 13 0 9 5 15 11 13 6 -2 11 -8 11 -13z m-182 -9 c0 -8 -4 -17 -9 -21
                                                -12 -7 -24 12 -16 25 9 15 25 12 25 -4z m284 -1 c-4 -8 -8 -15 -10 -15 -2 0
                                                -4 7 -4 15 0 8 4 15 10 15 5 0 7 -7 4 -15z m-154 -10 c0 -8 -4 -15 -9 -15 -13
                                                0 -22 16 -14 24 11 11 23 6 23 -9z m-300 -5 c0 -5 -4 -10 -10 -10 -5 0 -10 5
                                                -10 10 0 6 5 10 10 10 6 0 10 -4 10 -10z m109 -25 c-6 -6 -13 -5 -19 5 -6 9
                                                -5 17 3 22 15 9 29 -14 16 -27z m311 27 c0 -13 -12 -22 -22 -16 -10 6 -1 24
                                                13 24 5 0 9 -4 9 -8z m-178 -34 c-15 -15 -26 -4 -18 18 5 13 9 15 18 6 9 -9 9
                                                -15 0 -24z m128 7 c0 -8 -4 -15 -10 -15 -5 0 -10 7 -10 15 0 8 5 15 10 15 6 0
                                                10 -7 10 -15z m-308 -10 c0 -5 -5 -11 -11 -13 -6 -2 -11 4 -11 13 0 9 5 15 11
                                                13 6 -2 11 -8 11 -13z m128 -10 c0 -8 -7 -15 -15 -15 -8 0 -15 7 -15 15 0 8 7
                                                15 15 15 8 0 15 -7 15 -15z m-170 -4 c0 -17 -18 -21 -24 -6 -3 9 0 15 9 15 8
                                                0 15 -4 15 -9z m298 -2 c-2 -6 -8 -10 -13 -10 -5 0 -11 4 -13 10 -2 6 4 11 13
                                                11 9 0 15 -5 13 -11z m112 2 c0 -6 -4 -13 -10 -16 -5 -3 -10 1 -10 9 0 9 5 16
                                                10 16 6 0 10 -4 10 -9z m-292 -19 c2 -7 -3 -12 -12 -12 -9 0 -16 7 -16 16 0
                                                17 22 14 28 -4z m132 -7 c0 -8 -7 -15 -15 -15 -16 0 -20 12 -8 23 11 12 23 8
                                                23 -8z m120 -6 c0 -5 -7 -9 -15 -9 -15 0 -20 12 -9 23 8 8 24 -1 24 -14z
                                                m-302 -7 c2 -7 -3 -12 -12 -12 -9 0 -16 7 -16 16 0 17 22 14 28 -4z m118 -19
                                                c-6 -15 -9 -15 -16 -3 -6 9 -5 17 3 22 16 10 21 2 13 -19z m-166 2 c0 -8 -4
                                                -15 -10 -15 -5 0 -10 7 -10 15 0 8 5 15 10 15 6 0 10 -7 10 -15z m300 7 c0
                                                -13 -12 -22 -22 -16 -10 6 -1 24 13 24 5 0 9 -4 9 -8z m-180 -23 c0 -5 -7 -9
                                                -15 -9 -15 0 -20 12 -9 23 8 8 24 -1 24 -14z m130 -10 c0 -5 -7 -9 -15 -9 -15
                                                0 -20 12 -9 23 8 8 24 -1 24 -14z m110 12 c0 -6 -4 -13 -10 -16 -5 -3 -10 1
                                                -10 9 0 9 5 16 10 16 6 0 10 -4 10 -9z m-293 -27 c-9 -9 -28 6 -21 18 4 6 10
                                                6 17 -1 6 -6 8 -13 4 -17z m120 -11 c-3 -3 -11 -2 -17 2 -9 6 -9 10 1 16 14 8
                                                27 -7 16 -18z m119 0 c-10 -10 -19 5 -10 18 6 11 8 11 12 0 2 -7 1 -15 -2 -18z
                                                m-281 7 c3 -5 -1 -10 -9 -10 -9 0 -16 5 -16 10 0 6 4 10 9 10 6 0 13 -4 16
                                                -10z m115 -15 c0 -8 -4 -15 -9 -15 -13 0 -22 16 -14 24 11 11 23 6 23 -9z
                                                m124 -4 c3 -5 -1 -11 -9 -15 -9 -3 -15 0 -15 9 0 16 16 20 24 6z m-174 -11 c0
                                                -5 -4 -10 -10 -10 -5 0 -10 5 -10 10 0 6 5 10 10 10 6 0 10 -4 10 -10z m-45
                                                -10 c3 -5 2 -10 -4 -10 -5 0 -13 5 -16 10 -3 6 -2 10 4 10 5 0 13 -4 16 -10z
                                                m165 0 c0 -5 -4 -10 -10 -10 -5 0 -10 5 -10 10 0 6 5 10 10 10 6 0 10 -4 10
                                                -10z m-50 -20 c0 -5 -4 -10 -9 -10 -6 0 -13 5 -16 10 -3 6 1 10 9 10 9 0 16
                                                -4 16 -10z m-50 -10 c0 -5 -2 -10 -4 -10 -3 0 -8 5 -11 10 -3 6 -1 10 4 10 6
                                                0 11 -4 11 -10z"/>
        <path d="M613 2343 l-93 -218 138 -137 137 -138 186 0 186 0 88 208 c48 114
                                                90 213 92 220 4 9 -29 12 -145 12 l-149 0 -108 -170 c-59 -94 -109 -169 -111
                                                -167 -2 2 28 79 68 171 l71 168 -134 134 -134 134 -92 -217z"/>
        <path d="M775 2530 c16 -16 30 -29 31 -27 1 1 0 14 -3 30 -4 21 -11 27 -31 27
                                                l-26 0 29 -30z"/>
        <path d="M1261 2340 l-23 -20 42 0 c42 0 43 0 25 20 -10 11 -19 20 -19 20 -1
                                                -1 -12 -10 -25 -20z"/>
        <path d="M1310 2074 c-50 -119 -89 -219 -86 -222 3 -3 8 -3 10 -1 4 3 121 277
                                                183 427 3 6 1 12 -5 12 -6 0 -51 -97 -102 -216z"/>
        <path d="M1465 2258 c-7 -18 -48 -114 -89 -212 -42 -98 -76 -183 -76 -187 0
                                                -5 8 -9 19 -9 16 0 77 131 198 428 3 7 -3 12 -16 12 -15 0 -26 -10 -36 -32z"/>
        <path d="M1498 2152 c-31 -75 -72 -174 -92 -219 l-35 -83 562 1 562 0 103 109
                                                103 109 -68 110 -68 110 -505 0 -505 1 -57 -138z m1070 -4 l52 -83 -77 -77
                                                -78 -78 -492 0 c-330 0 -493 3 -493 10 0 6 28 78 63 160 l62 150 456 0 456 0
                                                51 -82z"/>
        <path d="M1602 2113 c-22 -54 -48 -115 -56 -135 l-16 -38 108 0 108 0 11 30
                                                11 30 -64 0 c-35 0 -64 1 -64 3 0 2 18 45 40 96 22 50 40 96 40 102 0 5 -17 9
                                                -39 9 l-38 0 -41 -97z m98 72 c0 -3 -18 -48 -40 -100 l-39 -95 64 0 c58 0 63
                                                -2 58 -20 -3 -11 -9 -20 -14 -20 -5 0 -6 7 -3 15 5 12 -5 15 -55 15 -34 0 -61
                                                4 -61 8 0 5 18 49 39 100 38 89 39 91 17 95 -17 3 -16 5 7 6 15 0 27 -1 27 -4z"/>
        <path d="M1832 2113 c-22 -54 -48 -115 -56 -135 l-16 -38 42 0 43 0 53 128
                                                c29 70 52 130 52 135 0 4 -17 7 -39 7 l-38 0 -41 -97z m94 60 c-30 -82 -92
                                                -223 -98 -223 -4 0 9 37 28 83 69 161 65 145 41 150 -17 3 -16 5 7 6 23 1 27
                                                -2 22 -16z"/>
        <path d="M1966 2173 c-3 -21 -6 -82 -6 -135 l0 -98 44 0 45 0 100 128 c56 70
                                                101 130 101 135 0 4 -17 7 -37 7 -35 0 -41 -5 -85 -68 -27 -37 -58 -80 -71
                                                -96 l-23 -29 7 59 c4 32 8 76 8 97 1 37 1 37 -38 37 -37 0 -39 -2 -45 -37z
                                                m70 -15 c-3 -18 -8 -68 -12 -110 -4 -43 -10 -78 -13 -78 -4 0 -2 47 4 105 l11
                                                104 -26 4 c-20 3 -18 4 9 6 32 1 33 0 27 -31z m102 -83 c-50 -64 -96 -119
                                                -102 -122 -13 -8 27 46 107 146 47 57 57 75 46 82 -10 6 -6 9 13 9 27 0 24 -5
                                                -64 -115z"/>
        <path d="M2232 2113 c-22 -54 -48 -115 -56 -135 l-16 -38 113 0 c112 0 114 0
                                                125 25 7 14 12 28 12 30 0 3 -31 5 -70 5 -38 0 -70 3 -70 6 0 3 5 14 10 25 9
                                                16 22 19 76 19 60 0 65 2 74 26 6 14 10 27 10 30 0 2 -27 4 -61 4 -52 0 -60 2
                                                -55 16 3 9 6 18 6 20 0 2 31 4 70 4 58 0 71 3 80 19 20 38 13 41 -99 41 l-109
                                                0 -40 -97z m238 68 c0 -6 -5 -13 -12 -17 -7 -4 -8 -3 -4 4 5 8 -21 12 -86 15
                                                l-93 3 98 2 c55 1 97 -2 97 -7z m-160 -50 c-18 -36 -12 -41 50 -41 33 0 60 -4
                                                60 -8 0 -7 -130 -4 -138 3 -6 5 21 65 29 65 6 0 5 -8 -1 -19z m-49 -115 c-10
                                                -24 -8 -26 17 -27 111 -4 116 -6 102 -29 -7 -10 -10 -11 -10 -2 0 8 -20 12
                                                -65 12 -70 0 -76 5 -53 55 15 32 22 26 9 -9z"/>
        <path d="M655 1939 c-2 -8 -59 -158 -125 -333 -136 -363 -134 -334 -33 -382
                                                30 -14 56 -24 57 -22 1 2 49 111 106 243 57 132 118 273 136 313 32 70 32 72
                                                11 72 -13 0 -46 24 -84 62 -44 43 -64 57 -68 47z"/>
        <path d="M742 1517 c-78 -172 -142 -315 -142 -319 0 -5 10 -8 23 -8 19 0 40
                                                39 170 313 81 173 147 316 147 320 0 4 -12 7 -27 7 -27 -1 -34 -14 -171 -313z"/>
        <path d="M970 1773 c0 -5 13 -64 29 -131 l29 -124 -68 -121 c-37 -67 -66 -125
                                                -63 -129 5 -10 1940 -10 1946 -1 3 5 -9 63 -25 130 l-30 122 70 130 70 131
                                                -979 0 c-538 0 -979 -3 -979 -7z m381 -165 c18 -57 34 -98 36 -93 2 6 18 51
                                                36 100 l32 90 53 3 c28 2 52 1 52 -2 0 -4 -108 -306 -125 -349 -6 -15 -17 -17
                                                -58 -15 l-51 3 -30 93 c-17 50 -34 92 -38 92 -4 0 -8 -4 -8 -9 0 -6 -14 -48
                                                -31 -95 l-31 -86 -49 0 c-27 0 -49 4 -49 9 0 11 117 338 126 352 3 5 27 9 54
                                                9 l49 0 32 -102z m559 93 c0 -4 -5 -22 -11 -40 l-11 -31 -92 0 c-90 0 -93 -1
                                                -104 -25 -7 -14 -12 -28 -12 -30 0 -3 38 -5 85 -5 47 0 85 -2 85 -4 0 -1 -5
                                                -17 -11 -35 l-11 -31 -88 0 -88 0 -11 -32 c-6 -17 -10 -33 -8 -34 1 -2 42 -4
                                                90 -5 48 -1 89 -4 91 -8 2 -3 -3 -23 -11 -43 l-15 -38 -149 0 c-87 0 -149 4
                                                -149 9 0 11 117 338 126 352 7 12 294 12 294 0z m133 2 c3 -5 -2 -46 -9 -92
                                                -8 -46 -13 -85 -11 -87 2 -2 25 31 52 74 68 109 71 112 121 112 24 0 45 -4 48
                                                -9 3 -4 2 -47 -2 -95 -4 -47 -5 -86 -2 -86 3 0 28 42 55 93 l50 92 48 3 c30 2
                                                47 -1 47 -8 0 -6 -45 -90 -101 -186 l-101 -174 -55 0 -55 0 7 78 c3 42 8 93
                                                11 112 7 45 1 39 -80 -87 l-66 -103 -48 0 c-27 0 -51 2 -53 5 -5 5 37 329 46
                                                353 5 13 91 17 98 5z m652 -3 c28 -11 49 -53 40 -81 -5 -15 -16 -19 -55 -19
                                                -40 0 -50 4 -55 21 -9 28 -80 24 -80 -5 0 -14 14 -24 60 -38 33 -10 68 -29 78
                                                -41 40 -46 -6 -137 -88 -177 -38 -18 -59 -21 -121 -18 -65 3 -79 7 -95 27 -10
                                                13 -19 38 -19 56 0 28 4 33 31 39 56 11 79 7 79 -12 0 -43 63 -58 94 -23 27
                                                29 16 44 -49 66 -68 23 -100 58 -90 97 10 40 56 88 100 103 47 17 133 19 170
                                                5z"/>
        <path d="M3048 1683 c-19 -22 -38 -58 -38 -72 0 -6 14 -11 30 -11 29 0 30 1
                                                30 50 0 28 -2 50 -3 50 -2 0 -11 -8 -19 -17z"/>
        <path d="M3090 1651 l0 -51 36 0 c32 0 35 2 29 23 -8 28 -38 70 -53 75 -8 2
                                                -12 -12 -12 -47z"/>
        <path d="M2983 1670 c-17 -10 -34 -24 -38 -30 -8 -12 11 -30 30 -30 10 0 48
                                                70 42 77 -2 1 -17 -6 -34 -17z"/>
        <path d="M3150 1686 c0 -2 7 -20 15 -40 13 -31 19 -36 38 -30 30 9 32 11 17
                                                29 -13 16 -70 49 -70 41z"/>
        <path d="M2910 1584 c-20 -51 -14 -64 30 -64 39 0 40 1 40 33 0 26 -6 36 -25
                                                45 -34 16 -34 16 -45 -14z"/>
        <path d="M3213 1600 c-18 -7 -23 -17 -23 -45 0 -34 1 -35 40 -35 44 0 51 15
                                                28 65 -12 28 -13 28 -45 15z"/>
        <path d="M3000 1550 c0 -28 3 -30 35 -30 32 0 35 2 35 30 0 28 -3 30 -35 30
                                                -32 0 -35 -2 -35 -30z"/>
        <path d="M3097 1573 c-4 -3 -7 -17 -7 -30 0 -20 5 -23 40 -23 38 0 40 2 40 30
                                                0 27 -3 30 -33 30 -19 0 -37 -3 -40 -7z"/>
        <path d="M2902 1463 c13 -49 20 -55 52 -47 22 5 26 11 26 45 l0 39 -44 0 -44
                                                0 10 -37z"/>
        <path d="M3000 1464 c0 -33 2 -36 23 -30 12 3 28 6 35 6 7 0 12 13 12 30 0 28
                                                -3 30 -35 30 -34 0 -35 -2 -35 -36z"/>
        <path d="M3090 1471 c0 -25 4 -29 33 -34 41 -6 47 -2 47 34 0 27 -2 29 -40 29
                                                -37 0 -40 -2 -40 -29z"/>
        <path d="M3188 1464 c-4 -31 -1 -37 20 -45 34 -13 38 -12 50 16 23 49 16 65
                                                -27 65 -37 0 -39 -2 -43 -36z"/>
        <path d="M3022 1411 c-12 -7 -11 -13 1 -38 9 -16 23 -35 31 -42 14 -12 16 -8
                                                16 38 0 42 -3 51 -17 51 -10 0 -24 -4 -31 -9z"/>
        <path d="M3090 1371 c0 -58 10 -63 38 -23 34 46 32 67 -5 70 l-33 3 0 -50z"/>
        <path d="M2961 1399 c-27 -11 -20 -24 28 -52 35 -21 37 -15 13 29 -15 27 -20
                                                30 -41 23z"/>
        <path d="M3165 1373 c-8 -20 -14 -38 -12 -39 5 -5 64 40 66 51 1 5 -7 12 -18
                                                17 -18 6 -23 1 -36 -29z"/>
        <path d="M411 1227 c-5 -12 -23 -57 -40 -100 -17 -43 -31 -82 -31 -87 0 -13
                                                61 -58 90 -65 24 -5 27 0 69 100 24 58 42 107 40 109 -2 1 -30 17 -62 34 l-58
                                                31 -8 -22z"/>
        <path d="M537 1068 c-45 -98 -51 -118 -27 -103 9 5 100 189 100 201 0 2 -6 4
                                -13 4 -7 0 -34 -46 -60 -102z"/>
    </g>
</svg>
